<svg width="24.000000" height="24.000000" viewBox="0 0 24 24" fill="none" xmlns="http://www.w3.org/2000/svg" xmlns:xlink="http://www.w3.org/1999/xlink">
	<desc>
			Created with Pixso.
	</desc>
	<defs>
		<clipPath id="clip1_803">
			<rect width="24.000000" height="24.000000" fill="white" fill-opacity="0"/>
		</clipPath>
	</defs>
	<rect width="24.000000" height="24.000000" fill="#FFFFFF" fill-opacity="0"/>
	<g clip-path="url(#clip1_803)">
		<path d="M21.5 21L21.5 18.33C21.5 16.91 20.99 15.56 20.1 14.56C19.21 13.56 18 13 16.75 13L7.25 13C5.99 13 4.78 13.56 3.89 14.56C3 15.56 2.5 16.91 2.5 18.33L2.5 21" stroke="#29180F" stroke-opacity="1.000000" stroke-width="2.000000" stroke-linejoin="round" stroke-linecap="round"/>
		<path d="M12 11C9.51 11 7.5 8.98 7.5 6.5C7.5 4.01 9.51 2 12 2C14.48 2 16.5 4.01 16.5 6.5C16.5 8.98 14.48 11 12 11Z" stroke="#29180F" stroke-opacity="1.000000" stroke-width="2.000000" stroke-linejoin="round"/>
		<path d="M2.5 21L21.5 21" stroke="#000000" stroke-opacity="1.000000" stroke-width="2.000000"/>
	</g>
</svg>
