<svg width="56.000000" height="56.000000" viewBox="0 0 56 56" fill="none" xmlns="http://www.w3.org/2000/svg" xmlns:xlink="http://www.w3.org/1999/xlink">
	<desc>
			Created with Pixso.
	</desc>
	<defs/>
	<circle id="Avatar Image" cx="28.000000" cy="28.000000" r="28.000000" fill="#FFFFFF" fill-opacity="1.000000"/>
	<circle id="Avatar Image" cx="28.000000" cy="28.000000" r="27.500000" stroke="#C9B079" stroke-opacity="1.000000" stroke-width="1.000000"/>
	<path id="C" d="M28.8 15.45C34.34 15.45 38.73 18.73 39.61 24.33L35.63 24.33C34.97 20.94 32.18 19.06 28.84 19.06C24.33 19.06 20.95 22.55 20.95 28.91C20.95 35.31 24.34 38.75 28.83 38.75C32.14 38.75 34.96 36.91 35.63 33.56L39.61 33.57C38.76 38.75 34.55 42.36 28.8 42.36C22 42.36 17.03 37.28 17.03 28.91C17.03 20.53 22.03 15.45 28.8 15.45Z" fill="#28180F" fill-opacity="1.000000" fill-rule="evenodd"/>
</svg>
