<svg width="61.000000" height="61.000000" viewBox="0 0 61 61" fill="none" xmlns="http://www.w3.org/2000/svg" xmlns:xlink="http://www.w3.org/1999/xlink">
	<desc>
			Created with Pixso.
	</desc>
	<defs>
		<filter id="filter_1_971_dd" x="0.000000" y="0.000000" width="61.000000" height="61.000000" filterUnits="userSpaceOnUse" color-interpolation-filters="sRGB">
			<feFlood flood-opacity="0" result="BackgroundImageFix"/>
			<feColorMatrix in="SourceAlpha" type="matrix" values="0 0 0 0 0 0 0 0 0 0 0 0 0 0 0 0 0 0 127 0" result="hardAlpha"/>
			<feOffset dx="0" dy="4"/>
			<feGaussianBlur stdDeviation="1.33333"/>
			<feComposite in2="hardAlpha" operator="out" k2="-1" k3="1"/>
			<feColorMatrix type="matrix" values="0 0 0 0 0 0 0 0 0 0 0 0 0 0 0 0 0 0 0.25 0"/>
			<feBlend mode="normal" in2="BackgroundImageFix" result="effect_dropShadow_1"/>
			<feBlend mode="normal" in="SourceGraphic" in2="effect_dropShadow_1" result="shape"/>
		</filter>
		<clipPath id="clip1_973">
			<rect id="Progetto senza titolo (3) 1" width="64.041664" height="43.062500" transform="translate(-1.521484 5.520752)" fill="white" fill-opacity="0"/>
		</clipPath>
		<clipPath id="clip1_971">
			<rect id="Icon / Relume" rx="26.000000" width="52.000000" height="52.000000" transform="translate(4.500000 0.500000)" fill="white" fill-opacity="0"/>
		</clipPath>
	</defs>
	<g filter="url(#filter_1_971_dd)">
		<rect id="Icon / Relume" rx="26.000000" width="52.000000" height="52.000000" transform="translate(4.500000 0.500000)" fill="#FFFFFF" fill-opacity="1.000000"/>
		<g clip-path="url(#clip1_971)">
			<rect id="Progetto senza titolo (3) 1" width="64.041664" height="43.062500" transform="translate(-1.521484 5.520752)" fill="#FFFFFF" fill-opacity="1.000000"/>
			<g clip-path="url(#clip1_973)">
				<mask id="mask1_975" mask-type="alpha" maskUnits="userSpaceOnUse" x="6.578125" y="11.154053" width="46.036621" height="30.739990">
					<path id="Vector" d="M6.57 11.15L52.61 11.15L52.61 41.89L6.57 41.89L6.57 11.15Z" fill="#000000" fill-opacity="1.000000" fill-rule="nonzero"/>
				</mask>
				<g mask="url(#mask1_975)">
					<path id="Vector" d="M47.29 20.25L41.43 20.25C41.4 20.25 41.37 20.24 41.34 20.24C41.32 20.23 41.29 20.22 41.26 20.21C41.24 20.2 41.21 20.19 41.19 20.17C41.16 20.15 41.14 20.14 41.13 20.11C41.11 20.09 41.09 20.07 41.08 20.05C41.06 20.02 41.05 19.99 41.04 19.97C41.04 19.94 41.03 19.91 41.03 19.88C41.03 19.86 41.03 19.83 41.04 19.8L41.84 13.69C41.85 13.66 41.85 13.63 41.85 13.61C41.85 13.58 41.84 13.55 41.84 13.52C41.83 13.5 41.82 13.47 41.8 13.45C41.79 13.42 41.77 13.4 41.76 13.38C41.74 13.36 41.72 13.34 41.69 13.32C41.67 13.3 41.65 13.29 41.62 13.28C41.59 13.27 41.57 13.26 41.54 13.25C41.51 13.25 41.48 13.24 41.45 13.25L15.44 13.25C15.33 13.25 15.23 13.26 15.13 13.28C15.02 13.3 14.92 13.33 14.83 13.37C14.73 13.41 14.64 13.45 14.55 13.5C14.46 13.56 14.37 13.62 14.29 13.69C14.22 13.76 14.14 13.83 14.08 13.91C14.01 13.99 13.96 14.08 13.91 14.17C13.86 14.26 13.81 14.35 13.78 14.45C13.75 14.55 13.72 14.65 13.71 14.75L13.55 15.98L23.58 15.98C23.67 15.98 23.76 15.98 23.86 16C23.95 16.02 24.04 16.05 24.12 16.08C24.21 16.12 24.29 16.17 24.37 16.22C24.44 16.28 24.51 16.34 24.57 16.41C24.64 16.48 24.69 16.55 24.73 16.64C24.78 16.72 24.81 16.8 24.84 16.89C24.87 16.98 24.88 17.07 24.89 17.16C24.89 17.26 24.89 17.35 24.87 17.44C24.86 17.54 24.83 17.64 24.8 17.73C24.77 17.83 24.73 17.92 24.68 18.01C24.63 18.09 24.57 18.18 24.51 18.26C24.45 18.33 24.38 18.41 24.3 18.47C24.22 18.54 24.14 18.6 24.05 18.65C23.97 18.7 23.88 18.75 23.78 18.78C23.69 18.82 23.59 18.85 23.49 18.87C23.39 18.89 23.29 18.9 23.19 18.9L9.54 18.9C9.48 18.9 9.41 18.91 9.34 18.92C9.28 18.94 9.21 18.95 9.15 18.98C9.08 19 9.02 19.03 8.96 19.06C8.91 19.1 8.85 19.14 8.8 19.18C8.75 19.23 8.7 19.27 8.66 19.33C8.62 19.38 8.58 19.43 8.55 19.49C8.52 19.55 8.49 19.61 8.47 19.68C8.45 19.74 8.43 19.8 8.42 19.87L8.42 19.9C8.41 19.96 8.41 20.02 8.41 20.08C8.42 20.14 8.43 20.2 8.44 20.25C8.46 20.31 8.48 20.37 8.51 20.42C8.54 20.47 8.58 20.52 8.62 20.57C8.66 20.61 8.7 20.66 8.75 20.69C8.8 20.73 8.85 20.76 8.91 20.78C8.96 20.81 9.02 20.83 9.08 20.84C9.14 20.85 9.2 20.86 9.26 20.86L22.94 20.86C23.03 20.85 23.13 20.86 23.22 20.88C23.31 20.9 23.4 20.92 23.49 20.96C23.57 21 23.65 21.04 23.73 21.1C23.81 21.15 23.87 21.22 23.94 21.29C24 21.36 24.05 21.43 24.1 21.51C24.14 21.6 24.18 21.68 24.2 21.77C24.23 21.86 24.24 21.95 24.25 22.04C24.25 22.13 24.25 22.23 24.23 22.32C24.22 22.42 24.19 22.51 24.16 22.61C24.13 22.7 24.09 22.8 24.04 22.88C23.99 22.97 23.93 23.06 23.87 23.13C23.81 23.21 23.74 23.28 23.66 23.35C23.58 23.42 23.5 23.48 23.42 23.53C23.33 23.58 23.24 23.63 23.14 23.66C23.05 23.7 22.95 23.73 22.85 23.75C22.75 23.77 22.65 23.78 22.55 23.78L12.41 23.78C12.34 23.78 12.27 23.79 12.21 23.8C12.14 23.82 12.08 23.84 12.02 23.86C11.96 23.88 11.9 23.91 11.84 23.95C11.78 23.98 11.73 24.02 11.68 24.06C11.63 24.11 11.58 24.15 11.54 24.21C11.5 24.26 11.46 24.31 11.43 24.37C11.4 24.43 11.37 24.49 11.35 24.55C11.33 24.61 11.32 24.67 11.31 24.74L11.31 24.77C11.3 24.83 11.29 24.89 11.3 24.95C11.3 25.01 11.31 25.07 11.33 25.12C11.34 25.18 11.37 25.24 11.4 25.29C11.43 25.34 11.46 25.39 11.5 25.44C11.54 25.48 11.59 25.52 11.63 25.56C11.68 25.6 11.74 25.63 11.79 25.65C11.85 25.68 11.91 25.7 11.97 25.71C12.03 25.72 12.09 25.73 12.15 25.72L22.29 25.72C22.39 25.72 22.48 25.73 22.57 25.75C22.66 25.77 22.75 25.8 22.84 25.83C22.92 25.87 23 25.92 23.08 25.97C23.15 26.03 23.22 26.09 23.28 26.16C23.34 26.23 23.39 26.3 23.44 26.38C23.48 26.46 23.52 26.55 23.54 26.64C23.57 26.72 23.58 26.81 23.59 26.91C23.6 27 23.59 27.09 23.58 27.18C23.56 27.28 23.54 27.38 23.5 27.47C23.47 27.57 23.43 27.66 23.38 27.75C23.33 27.83 23.28 27.92 23.21 28C23.15 28.07 23.08 28.15 23 28.21C22.93 28.28 22.85 28.34 22.76 28.39C22.67 28.44 22.58 28.49 22.49 28.52C22.39 28.56 22.29 28.59 22.19 28.61C22.09 28.63 21.99 28.64 21.89 28.64L11.06 28.64C10.99 28.64 10.92 28.65 10.86 28.67C10.79 28.68 10.73 28.7 10.67 28.72C10.61 28.74 10.55 28.77 10.49 28.81C10.43 28.84 10.38 28.88 10.33 28.93C10.28 28.97 10.23 29.02 10.19 29.07C10.15 29.12 10.11 29.17 10.08 29.23C10.05 29.29 10.02 29.35 10 29.41C9.98 29.47 9.97 29.54 9.96 29.6C9.95 29.66 9.94 29.72 9.95 29.78C9.95 29.84 9.96 29.9 9.98 29.96C10 30.01 10.02 30.07 10.05 30.12C10.08 30.18 10.11 30.23 10.15 30.27C10.19 30.32 10.24 30.36 10.29 30.39C10.33 30.43 10.39 30.46 10.44 30.49C10.5 30.51 10.56 30.53 10.62 30.54C10.68 30.55 10.74 30.56 10.8 30.56L11.61 30.56L11.12 34.28C11.11 34.37 11.1 34.47 11.11 34.56C11.11 34.66 11.13 34.75 11.16 34.84C11.18 34.93 11.22 35.02 11.26 35.1C11.31 35.19 11.36 35.27 11.43 35.34C11.49 35.41 11.56 35.47 11.64 35.53C11.72 35.59 11.8 35.63 11.89 35.67C11.98 35.71 12.07 35.74 12.17 35.76C12.26 35.78 12.36 35.78 12.45 35.78L14.52 35.78C14.14 38.58 16.15 40.85 19 40.85C21.84 40.85 24.45 38.58 24.82 35.78L35.59 35.78C35.22 38.58 37.23 40.85 40.08 40.85C42.94 40.85 45.54 38.58 45.91 35.78L48.78 35.78C48.84 35.78 48.9 35.77 48.96 35.74C49.02 35.72 49.07 35.69 49.12 35.65C49.16 35.61 49.2 35.56 49.23 35.5C49.26 35.45 49.28 35.39 49.29 35.33L50.37 27.16L47.29 20.25ZM22.75 35.88C22.71 36.08 22.66 36.27 22.59 36.46C22.52 36.65 22.44 36.83 22.34 37C22.24 37.17 22.12 37.34 21.99 37.49C21.87 37.65 21.73 37.79 21.57 37.93C21.42 38.06 21.26 38.18 21.09 38.28C20.91 38.39 20.73 38.48 20.55 38.56C20.36 38.63 20.17 38.69 19.97 38.74C19.77 38.78 19.57 38.81 19.37 38.82C19.26 38.83 19.16 38.83 19.06 38.82C18.96 38.82 18.86 38.8 18.76 38.79C18.66 38.77 18.56 38.75 18.46 38.72C18.36 38.69 18.27 38.66 18.17 38.62C18.08 38.58 17.99 38.54 17.9 38.49C17.81 38.44 17.72 38.39 17.64 38.33C17.56 38.27 17.48 38.21 17.4 38.14C17.33 38.07 17.26 38 17.19 37.92C17.12 37.85 17.06 37.77 17 37.68C16.95 37.6 16.89 37.52 16.85 37.43C16.8 37.34 16.75 37.25 16.72 37.16C16.68 37.06 16.65 36.97 16.62 36.87C16.6 36.77 16.58 36.67 16.56 36.58C16.55 36.48 16.54 36.38 16.54 36.28C16.53 36.18 16.54 36.08 16.54 35.98C16.55 35.88 16.57 35.78 16.59 35.68C16.62 35.48 16.68 35.29 16.75 35.1C16.81 34.92 16.9 34.74 17 34.56C17.1 34.39 17.21 34.22 17.34 34.07C17.46 33.91 17.6 33.77 17.76 33.64C17.91 33.5 18.07 33.39 18.24 33.28C18.41 33.17 18.59 33.08 18.78 33.01C18.97 32.93 19.16 32.87 19.36 32.82C19.55 32.78 19.75 32.75 19.96 32.74C20.06 32.73 20.16 32.73 20.26 32.74C20.36 32.74 20.47 32.75 20.57 32.77C20.67 32.78 20.77 32.81 20.87 32.83C20.96 32.86 21.06 32.89 21.15 32.93C21.25 32.97 21.34 33.02 21.43 33.06C21.52 33.11 21.61 33.17 21.69 33.23C21.77 33.28 21.85 33.35 21.93 33.41C22 33.48 22.07 33.55 22.14 33.63C22.21 33.71 22.27 33.79 22.33 33.87C22.39 33.95 22.44 34.04 22.49 34.13C22.54 34.21 22.58 34.31 22.62 34.4C22.65 34.49 22.69 34.59 22.71 34.69C22.74 34.78 22.76 34.88 22.77 34.98C22.79 35.08 22.8 35.18 22.8 35.28C22.8 35.38 22.8 35.48 22.79 35.58C22.78 35.68 22.77 35.78 22.75 35.88ZM43.83 35.88C43.79 36.08 43.74 36.27 43.67 36.46C43.6 36.64 43.52 36.82 43.42 37C43.32 37.17 43.21 37.34 43.08 37.49C42.95 37.65 42.81 37.79 42.66 37.92C42.51 38.05 42.35 38.17 42.18 38.28C42 38.39 41.82 38.48 41.64 38.55C41.45 38.63 41.26 38.69 41.06 38.73C40.86 38.78 40.66 38.81 40.46 38.82C40.36 38.83 40.26 38.83 40.16 38.82C40.05 38.82 39.95 38.8 39.85 38.79C39.75 38.77 39.65 38.75 39.55 38.72C39.46 38.69 39.36 38.66 39.27 38.62C39.17 38.58 39.08 38.54 38.99 38.49C38.9 38.44 38.82 38.39 38.73 38.33C38.65 38.27 38.57 38.21 38.5 38.14C38.42 38.07 38.35 38 38.28 37.92C38.22 37.85 38.16 37.77 38.1 37.68C38.04 37.6 37.99 37.52 37.94 37.43C37.89 37.34 37.85 37.25 37.81 37.16C37.77 37.06 37.74 36.97 37.72 36.87C37.69 36.77 37.67 36.67 37.66 36.58C37.64 36.48 37.63 36.38 37.63 36.28C37.63 36.18 37.63 36.08 37.64 35.98C37.65 35.88 37.66 35.78 37.68 35.68C37.72 35.48 37.77 35.29 37.84 35.1C37.91 34.92 37.99 34.74 38.09 34.56C38.19 34.39 38.3 34.22 38.43 34.07C38.56 33.91 38.7 33.77 38.85 33.64C39 33.5 39.16 33.39 39.34 33.28C39.51 33.17 39.69 33.08 39.87 33.01C40.06 32.93 40.25 32.87 40.45 32.82C40.65 32.78 40.85 32.75 41.05 32.74C41.15 32.73 41.25 32.73 41.36 32.74C41.46 32.74 41.56 32.75 41.66 32.77C41.76 32.79 41.86 32.81 41.96 32.84C42.05 32.87 42.15 32.9 42.24 32.94C42.34 32.98 42.43 33.02 42.52 33.07C42.61 33.12 42.69 33.17 42.78 33.23C42.86 33.29 42.94 33.35 43.01 33.42C43.09 33.49 43.16 33.56 43.23 33.64C43.29 33.71 43.35 33.79 43.41 33.87C43.47 33.96 43.52 34.04 43.57 34.13C43.62 34.22 43.66 34.31 43.7 34.4C43.74 34.5 43.77 34.59 43.79 34.69C43.82 34.79 43.84 34.88 43.85 34.98C43.87 35.08 43.88 35.18 43.88 35.28C43.88 35.38 43.88 35.48 43.87 35.58C43.86 35.68 43.85 35.78 43.83 35.88ZM40.09 27.17L40.67 22.75L45.95 22.75L47.97 27.19L40.09 27.17Z" fill="#3A2215" fill-opacity="1.000000" fill-rule="nonzero"/>
				</g>
			</g>
		</g>
		<rect id="Icon / Relume" rx="26.000000" width="52.000000" height="52.000000" transform="translate(4.500000 0.500000)" stroke="#000000" stroke-opacity="0" stroke-width="1.000000"/>
	</g>
</svg>
