<svg width="15.000000" height="14.000000" viewBox="0 0 15 14" fill="none" xmlns="http://www.w3.org/2000/svg" xmlns:xlink="http://www.w3.org/1999/xlink">
	<desc>
			Created with Pixso.
	</desc>
	<defs/>
	<path id="Vector" d="M6.8 0.45C7.06 -0.16 7.93 -0.16 8.19 0.45L9.71 4.02C9.82 4.28 10.07 4.45 10.35 4.47L14.3 4.78C14.97 4.83 15.24 5.65 14.73 6.08L11.72 8.59C11.51 8.77 11.41 9.05 11.48 9.32L12.4 13.08C12.55 13.72 11.84 14.23 11.27 13.88L7.89 11.87C7.65 11.72 7.34 11.72 7.1 11.87L3.72 13.88C3.15 14.23 2.44 13.72 2.59 13.08L3.51 9.32C3.58 9.05 3.48 8.77 3.27 8.59L0.26 6.08C-0.25 5.65 0.02 4.83 0.69 4.78L4.64 4.47C4.92 4.45 5.17 4.28 5.28 4.02L6.8 0.45ZM7.5 1.36L6.2 4.41Q6.1 4.63 5.96 4.81Q5.81 5 5.6 5.15Q5.41 5.29 5.19 5.37Q4.97 5.45 4.72 5.47L1.4 5.73L3.91 7.82Q4.11 7.99 4.24 8.19Q4.37 8.38 4.44 8.61Q4.52 8.84 4.53 9.08Q4.54 9.32 4.48 9.56L3.71 12.73L6.59 11.01Q6.79 10.89 7.02 10.83Q7.25 10.76 7.5 10.76Q7.74 10.76 7.97 10.83Q8.2 10.89 8.4 11.01L11.28 12.73L10.51 9.56Q10.45 9.32 10.46 9.08Q10.47 8.84 10.55 8.61Q10.62 8.38 10.75 8.19Q10.88 7.99 11.08 7.82L13.59 5.73L10.27 5.47Q10.02 5.45 9.8 5.37Q9.58 5.29 9.39 5.15Q9.18 5 9.03 4.81Q8.89 4.63 8.79 4.41L7.5 1.36Z" fill="#29180F" fill-opacity="1.000000" fill-rule="evenodd"/>
</svg>
