<svg width="64.000000" height="63.000000" viewBox="0 0 64 63" fill="none" xmlns="http://www.w3.org/2000/svg" xmlns:xlink="http://www.w3.org/1999/xlink">
	<desc>
			Created with Pixso.
	</desc>
	<defs/>
	<path id="Vector" d="M32.7 29.91C32.7 29.91 59.98 47.68 49.6 54.13C37.84 61.44 32.7 29.91 32.7 29.91Z" fill="#ECD7CA" fill-opacity="1.000000" fill-rule="nonzero"/>
	<path id="Vector" d="M32.99 30.72C32.99 30.72 42.34 61.88 30.27 60.19C16.59 58.28 32.99 30.72 32.99 30.72Z" fill="#ECD7CA" fill-opacity="1.000000" fill-rule="nonzero"/>
	<path id="Vector" d="M32.69 31.52C32.69 31.52 19.74 61.51 11.63 52.47C2.43 42.22 32.69 31.52 32.69 31.52Z" fill="#ECD7CA" fill-opacity="1.000000" fill-rule="nonzero"/>
	<path id="Vector" d="M31.95 31.95C31.95 31.95 2.75 46.72 2.39 34.56C1.99 20.78 31.95 31.95 31.95 31.95Z" fill="#ECD7CA" fill-opacity="1.000000" fill-rule="nonzero"/>
	<path id="Vector" d="M31.1 31.8C31.1 31.8 -0.67 24.45 6.89 14.85C15.46 3.99 31.1 31.8 31.1 31.8Z" fill="#ECD7CA" fill-opacity="1.000000" fill-rule="nonzero"/>
	<path id="Vector" d="M30.55 31.15C30.55 31.15 11.07 5.11 23.01 2.57C36.55 -0.3 30.55 31.15 30.55 31.15Z" fill="#ECD7CA" fill-opacity="1.000000" fill-rule="nonzero"/>
	<path id="Vector" d="M30.56 30.29C30.56 30.29 32.48 -2.25 43.22 3.46C55.39 9.93 30.56 30.29 30.56 30.29Z" fill="#ECD7CA" fill-opacity="1.000000" fill-rule="nonzero"/>
	<path id="Vector" d="M31.11 29.63C31.11 29.63 53.54 5.82 58.05 17.1C63.16 29.89 31.11 29.63 31.11 29.63Z" fill="#ECD7CA" fill-opacity="1.000000" fill-rule="nonzero"/>
	<path id="Vector" d="M31.96 29.48C31.96 29.48 64.4 25.54 60.57 37.11C56.22 50.23 31.96 29.48 31.96 29.48Z" fill="#ECD7CA" fill-opacity="1.000000" fill-rule="nonzero"/>
	<path id="Vector" d="M37.55 26.39C37.69 26.6 37.82 26.82 37.94 27.04C38.06 27.26 38.17 27.49 38.27 27.72C38.37 27.95 38.45 28.19 38.53 28.43C38.61 28.67 38.67 28.92 38.72 29.17C38.77 29.41 38.81 29.66 38.83 29.91C38.86 30.17 38.87 30.42 38.88 30.67C38.88 30.92 38.87 31.18 38.84 31.43C38.82 31.68 38.78 31.93 38.74 32.18C38.69 32.43 38.63 32.67 38.56 32.91C38.48 33.16 38.4 33.39 38.3 33.63C38.21 33.86 38.1 34.09 37.98 34.32C37.86 34.54 37.74 34.76 37.6 34.97C37.46 35.18 37.31 35.38 37.15 35.58C36.99 35.78 36.82 35.97 36.64 36.15C36.46 36.33 36.28 36.5 36.08 36.66C35.89 36.82 35.69 36.97 35.48 37.12C35.27 37.26 35.05 37.39 34.83 37.51C34.61 37.63 34.38 37.74 34.15 37.84C33.91 37.94 33.67 38.03 33.43 38.1C33.19 38.18 32.95 38.24 32.7 38.29C32.45 38.34 32.2 38.38 31.95 38.41C31.7 38.43 31.45 38.45 31.19 38.45C30.94 38.45 30.69 38.44 30.43 38.42C30.18 38.4 29.93 38.36 29.68 38.31C29.43 38.27 29.19 38.21 28.95 38.14C28.7 38.07 28.47 37.98 28.23 37.89C28 37.79 27.77 37.69 27.54 37.57C27.32 37.45 27.1 37.32 26.89 37.18C26.68 37.05 26.48 36.9 26.28 36.74C26.08 36.58 25.9 36.41 25.72 36.23C25.54 36.06 25.36 35.87 25.2 35.68C25.04 35.48 24.89 35.28 24.75 35.07C24.61 34.86 24.48 34.65 24.36 34.43C24.23 34.2 24.12 33.98 24.03 33.74C23.93 33.51 23.84 33.27 23.77 33.03C23.69 32.79 23.63 32.55 23.58 32.3C23.53 32.05 23.49 31.8 23.46 31.55C23.44 31.3 23.42 31.05 23.42 30.8C23.42 30.54 23.43 30.29 23.46 30.04C23.48 29.79 23.51 29.54 23.56 29.29C23.61 29.04 23.67 28.8 23.74 28.55C23.82 28.31 23.9 28.07 23.99 27.84C24.09 27.6 24.2 27.37 24.31 27.15C24.43 26.93 24.56 26.71 24.7 26.5C24.84 26.29 24.99 26.08 25.15 25.88C25.31 25.69 25.48 25.5 25.66 25.32C25.83 25.14 26.02 24.97 26.22 24.81C26.41 24.64 26.61 24.49 26.82 24.35C27.03 24.21 27.25 24.08 27.47 23.96C27.69 23.84 27.92 23.73 28.15 23.63C28.39 23.53 28.62 23.44 28.86 23.37C29.11 23.29 29.35 23.23 29.6 23.18C29.85 23.12 30.1 23.08 30.35 23.06C30.6 23.03 30.85 23.02 31.11 23.01C31.36 23.01 31.61 23.02 31.86 23.04C32.12 23.07 32.37 23.1 32.62 23.15C32.86 23.2 33.11 23.26 33.35 23.33C33.59 23.4 33.83 23.48 34.07 23.58C34.3 23.67 34.53 23.78 34.75 23.9C34.98 24.01 35.2 24.14 35.41 24.28C35.62 24.42 35.82 24.57 36.02 24.73C36.21 24.89 36.4 25.05 36.58 25.23C36.76 25.41 36.93 25.59 37.09 25.79C37.26 25.98 37.41 26.18 37.55 26.39Z" fill="#FFFFFF" fill-opacity="1.000000" fill-rule="nonzero"/>
</svg>
