<svg width="15.000000" height="14.000000" viewBox="0 0 15 14" fill="none" xmlns="http://www.w3.org/2000/svg" xmlns:xlink="http://www.w3.org/1999/xlink">
	<desc>
			Created with Pixso.
	</desc>
	<defs/>
	<path id="Vector" d="M6.8 0.45C7.06 -0.16 7.93 -0.16 8.19 0.45L9.71 4.02C9.82 4.28 10.07 4.45 10.35 4.47L14.3 4.78C14.97 4.83 15.24 5.65 14.73 6.08L11.72 8.59C11.51 8.77 11.41 9.05 11.48 9.32L12.4 13.08C12.55 13.72 11.84 14.23 11.27 13.88L7.89 11.87C7.65 11.72 7.34 11.72 7.1 11.87L3.72 13.88C3.15 14.23 2.44 13.72 2.59 13.08L3.51 9.32C3.58 9.05 3.48 8.77 3.27 8.59L0.26 6.08C-0.25 5.65 0.02 4.83 0.69 4.78L4.64 4.47C4.92 4.45 5.17 4.28 5.28 4.02L6.8 0.45Z" fill="#C9B079" fill-opacity="1.000000" fill-rule="nonzero"/>
</svg>
