<svg width="15.000000" height="14.000000" viewBox="0 0 15 14" fill="none" xmlns="http://www.w3.org/2000/svg" xmlns:xlink="http://www.w3.org/1999/xlink">
	<desc>
			Created with Pixso.
	</desc>
	<defs/>
	<path id="Vector" d="M14.91 5.2L14.97 5.39C15.02 5.53 14.98 5.68 14.87 5.78L11.23 8.84L12.31 13.42C12.35 13.57 12.29 13.72 12.17 13.81L12.01 13.92C11.94 13.97 11.86 14 11.78 13.99C11.71 14 11.64 13.98 11.59 13.94L7.5 11.49L3.43 13.94C3.37 13.98 3.3 14 3.23 13.99C3.15 14 3.07 13.97 3.01 13.92L2.82 13.81C2.7 13.72 2.64 13.57 2.68 13.42L3.76 8.84L0.13 5.79C0.01 5.69 -0.04 5.53 0.02 5.39L0.1 5.2C0.14 5.06 0.27 4.96 0.43 4.95L5.21 4.57L7.04 0.23C7.1 0.09 7.24 -0.01 7.4 0L7.59 0C7.75 -0.01 7.89 0.09 7.94 0.23L9.81 4.57L14.59 4.95C14.74 4.96 14.87 5.06 14.91 5.2ZM10.58 11.83L9.74 8.38L12.48 6.07L8.89 5.79L7.5 2.51L7.5 9.98L10.58 11.83Z" fill="#C9B079" fill-opacity="1.000000" fill-rule="evenodd"/>
</svg>
