<svg width="64.000000" height="55.999756" viewBox="0 0 64 55.9998" fill="none" xmlns="http://www.w3.org/2000/svg" xmlns:xlink="http://www.w3.org/1999/xlink">
	<desc>
			Created with Pixso.
	</desc>
	<defs/>
	<path id="Vector" d="M58.21 5.77C56.7 4.26 54.9 3.05 52.92 2.24C50.94 1.42 48.82 1 46.68 1C44.53 1 42.41 1.42 40.43 2.24C38.45 3.05 36.65 4.26 35.14 5.77L31.99 8.91L28.85 5.77C25.79 2.71 21.64 1 17.31 1C12.98 1 8.83 2.71 5.77 5.77C2.71 8.82 1 12.97 1 17.29C1 21.61 2.71 25.76 5.77 28.81L8.92 31.95L31.99 55L55.07 31.95L58.21 28.81C59.73 27.3 60.93 25.5 61.75 23.53C62.57 21.55 63 19.43 63 17.29C63 15.15 62.57 13.03 61.75 11.05C60.93 9.08 59.73 7.28 58.21 5.77Z" fill="#89D3D2" fill-opacity="1.000000" fill-rule="nonzero"/>
	<path id="Vector" d="M52.92 2.24C50.94 1.42 48.82 1 46.68 1C44.53 1 42.41 1.42 40.43 2.24C38.45 3.05 36.65 4.26 35.14 5.77L31.99 8.91L28.85 5.77C25.79 2.71 21.64 1 17.31 1C12.98 1 8.83 2.71 5.77 5.77C2.71 8.82 1 12.97 1 17.29C1 21.61 2.71 25.76 5.77 28.81L8.92 31.95L31.99 55L55.07 31.95L58.21 28.81C59.73 27.3 60.93 25.5 61.75 23.53C62.57 21.55 63 19.43 63 17.29C63 15.15 62.57 13.03 61.75 11.05C60.93 9.08 59.73 7.28 58.21 5.77C56.7 4.26 54.9 3.05 52.92 2.24Z" stroke="#3A2215" stroke-opacity="1.000000" stroke-width="2.000000" stroke-linejoin="round"/>
</svg>
