<svg width="71.000000" height="42.000000" viewBox="0 0 71 42" fill="none" xmlns="http://www.w3.org/2000/svg" xmlns:xlink="http://www.w3.org/1999/xlink">
	<desc>
			Created with Pixso.
	</desc>
	<defs/>
	<path id="Teddy Shop" d="M5.07 2.19L-0.32 2.19L0.12 -0.46L14.05 -0.46L13.61 2.19L8.21 2.19L5.76 17L2.62 17L5.07 2.19ZM34.99 14.93C34.34 15.89 33.11 17.22 30.87 17.22C27.77 17.22 25.87 14.78 26.58 10.47C27.31 6.1 30.08 3.74 33.1 3.74C35.41 3.74 36.14 5.12 36.46 6.07L36.59 6.07L37.67 -0.46L40.76 -0.46L37.86 17L34.83 17L35.18 14.93L34.99 14.93ZM50.13 14.93C49.48 15.89 48.24 17.22 46 17.22C42.91 17.22 41.01 14.78 41.72 10.47C42.45 6.1 45.22 3.74 48.24 3.74C50.55 3.74 51.28 5.12 51.59 6.07L51.72 6.07L52.8 -0.46L55.9 -0.46L53 17L49.97 17L50.32 14.93L50.13 14.93ZM23.87 13.49C22.93 15.76 20.61 17.25 17.55 17.25C13.61 17.25 11.62 14.63 12.31 10.53C12.98 6.49 15.89 3.74 19.63 3.74C22.86 3.74 25.28 5.76 24.51 10.34L24.36 11.29L15.23 11.29L15.23 11.33C14.85 13.79 15.91 14.84 17.99 14.84C19.35 14.84 20.44 14.28 21.04 13.16L23.87 13.49ZM62.51 18.57C61.39 20.69 59.79 21.91 57.41 21.91C56.57 21.91 55.84 21.75 55.45 21.58L56.58 19.17C57.85 19.57 58.71 19.41 59.55 17.93L59.95 17.22L57.44 3.91L60.59 3.91L61.96 13.81L62.09 13.81L66.77 3.91L70.17 3.91L62.51 18.57ZM19.28 6.14C17.51 6.14 15.95 7.64 15.6 9.21L21.73 9.21C22.03 7.43 21.06 6.14 19.28 6.14ZM29.73 10.45C29.32 12.91 30.07 14.69 32.09 14.69C34.06 14.69 35.5 12.99 35.93 10.45C36.35 7.91 35.49 6.27 33.49 6.27C31.44 6.27 30.13 8.01 29.73 10.45ZM44.87 10.45C44.46 12.91 45.2 14.69 47.23 14.69C49.2 14.69 50.64 12.99 51.07 10.45C51.48 7.91 50.62 6.27 48.63 6.27C46.57 6.27 45.27 8.01 44.87 10.45ZM24.74 24.43L21.69 24.43C21.74 22.84 20.7 21.98 18.82 21.98C16.84 21.98 15.51 22.93 15.29 24.25C15.02 25.7 16.48 26.31 17.86 26.66L19.43 27.06C21.93 27.68 24.21 29.07 23.71 32.1C23.19 35.17 20.43 37.26 16.24 37.26C12.18 37.26 9.91 35.31 10.36 31.84L13.47 31.84C13.28 33.67 14.69 34.56 16.66 34.56C18.72 34.56 20.3 33.56 20.54 32.07C20.78 30.71 19.62 30.13 17.8 29.65L15.91 29.14C13.16 28.39 11.63 26.96 12.04 24.45C12.56 21.36 15.63 19.3 19.3 19.3C23.02 19.3 25.16 21.39 24.74 24.43ZM33.28 26.34C31.62 26.34 30.27 27.43 29.94 29.33L28.68 37L25.58 37L28.48 19.54L31.51 19.54L30.42 26.13L30.57 26.13C31.4 24.64 32.84 23.74 34.87 23.74C37.57 23.74 39.07 25.49 38.56 28.66L37.17 37L34.07 37L35.39 29.14C35.67 27.37 34.88 26.34 33.28 26.34ZM53.32 30.58C52.67 34.59 49.82 37.25 46.03 37.25C42.15 37.25 40.15 34.5 40.82 30.43C41.47 26.4 44.31 23.74 48.12 23.74C51.98 23.74 53.99 26.48 53.32 30.58ZM57.17 41.91L54.06 41.91L57.08 23.91L60.12 23.91L59.76 26.07L59.95 26.07C60.55 25.12 61.76 23.74 64.08 23.74C67.09 23.74 69.06 26.1 68.35 30.47C67.63 34.78 64.9 37.22 61.84 37.22C59.58 37.22 58.79 35.89 58.47 34.93L58.34 34.93L57.17 41.91ZM43.91 30.57C43.52 32.93 44.21 34.78 46.28 34.78C48.42 34.78 49.84 32.85 50.24 30.41C50.61 28.05 49.92 26.18 47.87 26.18C45.71 26.18 44.29 28.13 43.91 30.57ZM62.8 26.27C60.8 26.27 59.42 27.91 59.01 30.45C58.6 32.99 59.42 34.69 61.41 34.69C63.43 34.69 64.78 32.91 65.21 30.45C65.59 28.01 64.84 26.27 62.8 26.27Z" fill="#29180F" fill-opacity="1.000000" fill-rule="evenodd"/>
</svg>
