<svg width="61.000000" height="61.000000" viewBox="0 0 61 61" fill="none" xmlns="http://www.w3.org/2000/svg" xmlns:xlink="http://www.w3.org/1999/xlink">
	<desc>
			Created with Pixso.
	</desc>
	<defs>
		<filter id="filter_1_983_dd" x="0.000000" y="0.000000" width="61.000000" height="61.000000" filterUnits="userSpaceOnUse" color-interpolation-filters="sRGB">
			<feFlood flood-opacity="0" result="BackgroundImageFix"/>
			<feColorMatrix in="SourceAlpha" type="matrix" values="0 0 0 0 0 0 0 0 0 0 0 0 0 0 0 0 0 0 127 0" result="hardAlpha"/>
			<feOffset dx="0" dy="4"/>
			<feGaussianBlur stdDeviation="1.33333"/>
			<feComposite in2="hardAlpha" operator="out" k2="-1" k3="1"/>
			<feColorMatrix type="matrix" values="0 0 0 0 0 0 0 0 0 0 0 0 0 0 0 0 0 0 0.25 0"/>
			<feBlend mode="normal" in2="BackgroundImageFix" result="effect_dropShadow_1"/>
			<feBlend mode="normal" in="SourceGraphic" in2="effect_dropShadow_1" result="shape"/>
		</filter>
		<clipPath id="clip1_985">
			<rect id="Progetto senza titolo (3) 1" width="64.041664" height="43.062500" transform="translate(-1.521484 5.520752)" fill="white" fill-opacity="0"/>
		</clipPath>
		<clipPath id="clip1_983">
			<rect id="Icon / Relume" rx="26.000000" width="52.000000" height="52.000000" transform="translate(4.500000 0.500000)" fill="white" fill-opacity="0"/>
		</clipPath>
	</defs>
	<g filter="url(#filter_1_983_dd)">
		<rect id="Icon / Relume" rx="26.000000" width="52.000000" height="52.000000" transform="translate(4.500000 0.500000)" fill="#FFFFFF" fill-opacity="1.000000"/>
		<g clip-path="url(#clip1_983)">
			<rect id="Progetto senza titolo (3) 1" width="64.041664" height="43.062500" transform="translate(-1.521484 5.520752)" fill="#FFFFFF" fill-opacity="1.000000"/>
			<g clip-path="url(#clip1_985)">
				<mask id="mask1_987" mask-type="alpha" maskUnits="userSpaceOnUse" x="6.578125" y="11.154053" width="46.036621" height="30.739990">
					<path id="Vector" d="M6.57 11.15L52.61 11.15L52.61 41.89L6.57 41.89L6.57 11.15Z" fill="#000000" fill-opacity="1.000000" fill-rule="nonzero"/>
				</mask>
			</g>
			<path id="Vector" d="M19.37 24.97C19.26 25.79 19.14 26.61 19.03 27.43C18.95 27.96 18.88 28.49 18.81 29.02C18.91 29.05 18.97 29.07 19.03 29.08C20.29 29.32 21.54 29.57 22.8 29.77C23.08 29.82 23.35 29.92 23.58 30.09C23.82 30.26 24 30.48 24.13 30.74C24.4 31.25 24.66 31.76 24.93 32.27C25.29 32.93 25.64 33.59 26 34.27C26.1 34.23 26.19 34.19 26.28 34.15C27.4 33.62 28.53 33.09 29.66 32.55C29.91 32.42 30.18 32.36 30.47 32.36C30.76 32.36 31.03 32.43 31.28 32.56C32.39 33.11 33.5 33.65 34.62 34.19C34.69 34.23 34.77 34.26 34.85 34.29C34.91 34.19 34.96 34.11 35.01 34.02C35.6 32.95 36.2 31.88 36.79 30.8C36.92 30.55 37.09 30.35 37.32 30.18C37.54 30.02 37.79 29.92 38.07 29.87C38.8 29.74 39.53 29.63 40.26 29.51C40.83 29.41 41.4 29.31 41.99 29.21C41.98 29.08 41.97 28.97 41.96 28.86C41.81 27.63 41.67 26.41 41.52 25.18C41.47 24.9 41.5 24.63 41.59 24.37C41.68 24.11 41.83 23.88 42.03 23.69C42.3 23.41 42.57 23.13 42.84 22.85L44.8 20.83C44.72 20.74 44.66 20.67 44.59 20.6C43.75 19.68 42.9 18.77 42.05 17.85C41.87 17.67 41.74 17.45 41.66 17.21C41.58 16.96 41.56 16.71 41.6 16.45C41.73 15.45 41.88 14.45 42.02 13.44C42.07 13.08 42.12 12.72 42.17 12.36C42.08 12.33 42.04 12.32 41.99 12.31C40.73 12.06 39.47 11.8 38.21 11.56C37.94 11.52 37.7 11.42 37.48 11.26C37.26 11.1 37.09 10.89 36.96 10.65C36.75 10.28 36.56 9.89 36.36 9.51C35.93 8.71 35.5 7.9 35.06 7.06C33.81 7.63 32.6 8.18 31.39 8.75C31.14 8.87 30.87 8.94 30.59 8.94C30.31 8.93 30.04 8.87 29.79 8.74C28.81 8.25 27.82 7.77 26.83 7.29C26.63 7.19 26.43 7.1 26.21 7C26.14 7.12 26.08 7.23 26.02 7.34C25.44 8.38 24.86 9.42 24.29 10.46C24.16 10.72 23.97 10.94 23.74 11.11C23.5 11.28 23.24 11.39 22.95 11.43C21.74 11.64 20.53 11.87 19.32 12.06C19.03 12.11 18.96 12.21 19 12.5C19.16 13.69 19.28 14.88 19.45 16.06C19.5 16.37 19.48 16.67 19.39 16.97C19.29 17.27 19.13 17.53 18.91 17.74C18.07 18.6 17.25 19.48 16.42 20.34C16.36 20.41 16.3 20.48 16.23 20.56C16.3 20.65 16.37 20.73 16.43 20.8C17.26 21.7 18.08 22.61 18.91 23.52C19.1 23.71 19.23 23.93 19.31 24.19C19.39 24.45 19.41 24.7 19.37 24.97ZM30.47 11.88C30.75 11.88 31.04 11.89 31.33 11.92C31.61 11.95 31.9 11.99 32.18 12.04C32.46 12.1 32.74 12.17 33.01 12.25C33.29 12.34 33.56 12.43 33.83 12.54C34.09 12.65 34.35 12.77 34.6 12.91C34.86 13.05 35.1 13.19 35.34 13.35C35.58 13.51 35.81 13.68 36.03 13.87C36.26 14.05 36.47 14.24 36.67 14.44C36.87 14.65 37.07 14.86 37.25 15.08C37.43 15.31 37.6 15.54 37.76 15.77C37.92 16.01 38.07 16.26 38.21 16.51C38.34 16.77 38.46 17.03 38.57 17.29C38.68 17.56 38.78 17.83 38.86 18.1C38.95 18.38 39.02 18.66 39.07 18.94C39.13 19.22 39.17 19.51 39.2 19.79C39.23 20.08 39.24 20.36 39.24 20.65C39.24 20.94 39.23 21.23 39.2 21.51C39.17 21.8 39.13 22.08 39.07 22.37C39.02 22.65 38.95 22.93 38.86 23.2C38.78 23.48 38.68 23.75 38.57 24.01C38.46 24.28 38.34 24.54 38.2 24.79C38.07 25.04 37.92 25.29 37.76 25.53C37.6 25.77 37.43 26 37.25 26.22C37.07 26.44 36.87 26.66 36.67 26.86C36.47 27.06 36.25 27.26 36.03 27.44C35.81 27.62 35.58 27.79 35.34 27.95C35.1 28.11 34.86 28.26 34.6 28.39C34.35 28.53 34.09 28.65 33.82 28.76C33.56 28.87 33.29 28.97 33.01 29.05C32.74 29.13 32.46 29.2 32.18 29.26C31.9 29.32 31.61 29.36 31.33 29.39C31.04 29.41 30.75 29.43 30.47 29.43C30.18 29.43 29.89 29.41 29.61 29.38C29.32 29.36 29.04 29.31 28.75 29.26C28.47 29.2 28.19 29.13 27.92 29.05C27.64 28.96 27.37 28.87 27.11 28.76C26.84 28.65 26.59 28.52 26.33 28.39C26.08 28.25 25.83 28.1 25.59 27.94C25.35 27.78 25.12 27.61 24.9 27.43C24.68 27.25 24.47 27.05 24.26 26.85C24.06 26.65 23.87 26.43 23.69 26.21C23.51 25.99 23.34 25.76 23.18 25.52C23.02 25.28 22.87 25.03 22.73 24.78C22.6 24.53 22.48 24.27 22.37 24C22.26 23.73 22.16 23.46 22.08 23.19C22 22.91 21.93 22.63 21.87 22.35C21.81 22.07 21.77 21.79 21.74 21.5C21.72 21.21 21.7 20.93 21.7 20.64C21.71 20.35 21.72 20.06 21.75 19.78C21.78 19.49 21.82 19.21 21.88 18.93C21.93 18.65 22 18.37 22.09 18.1C22.17 17.82 22.27 17.55 22.38 17.29C22.49 17.02 22.61 16.76 22.75 16.51C22.88 16.26 23.03 16.01 23.19 15.77C23.35 15.53 23.52 15.31 23.7 15.08C23.88 14.86 24.08 14.65 24.28 14.45C24.48 14.24 24.69 14.05 24.91 13.87C25.14 13.69 25.37 13.52 25.6 13.36C25.84 13.2 26.09 13.05 26.34 12.92C26.59 12.78 26.85 12.66 27.12 12.55C27.38 12.44 27.65 12.34 27.93 12.26C28.2 12.17 28.48 12.1 28.76 12.05C29.04 11.99 29.32 11.95 29.61 11.92C29.89 11.89 30.18 11.88 30.47 11.88ZM30.42 27.68C30.65 27.68 30.88 27.67 31.11 27.65C31.33 27.63 31.56 27.6 31.79 27.56C32.01 27.51 32.24 27.46 32.46 27.39C32.68 27.33 32.9 27.25 33.11 27.17C33.32 27.08 33.53 26.98 33.74 26.88C33.94 26.77 34.14 26.65 34.33 26.52C34.52 26.4 34.71 26.26 34.89 26.12C35.07 25.97 35.24 25.82 35.4 25.66C35.56 25.5 35.72 25.33 35.87 25.15C36.02 24.97 36.15 24.79 36.28 24.6C36.41 24.41 36.53 24.21 36.64 24.01C36.75 23.81 36.85 23.6 36.94 23.39C37.03 23.17 37.11 22.96 37.18 22.74C37.25 22.52 37.3 22.3 37.35 22.07C37.4 21.85 37.43 21.62 37.46 21.39C37.48 21.16 37.49 20.93 37.49 20.7C37.5 20.47 37.49 20.24 37.47 20.01C37.44 19.78 37.41 19.55 37.37 19.33C37.33 19.1 37.27 18.88 37.21 18.66C37.14 18.43 37.06 18.22 36.98 18C36.89 17.79 36.79 17.58 36.69 17.38C36.58 17.17 36.46 16.98 36.34 16.78C36.21 16.59 36.07 16.41 35.93 16.23C35.79 16.05 35.63 15.88 35.47 15.71C35.31 15.55 35.14 15.39 34.96 15.24C34.78 15.1 34.6 14.96 34.41 14.83C34.22 14.7 34.02 14.58 33.82 14.47C33.62 14.36 33.41 14.26 33.2 14.17C32.99 14.08 32.77 14 32.55 13.94C32.33 13.87 32.11 13.81 31.88 13.76C31.66 13.72 31.43 13.68 31.2 13.66C30.97 13.63 30.74 13.62 30.51 13.62C30.28 13.62 30.05 13.63 29.82 13.65C29.59 13.67 29.37 13.7 29.14 13.75C28.91 13.79 28.69 13.85 28.47 13.91C28.25 13.98 28.03 14.05 27.82 14.14C27.61 14.23 27.4 14.32 27.2 14.43C26.99 14.54 26.79 14.66 26.6 14.78C26.41 14.91 26.22 15.05 26.04 15.19C25.87 15.34 25.7 15.49 25.53 15.65C25.37 15.81 25.21 15.98 25.07 16.16C24.92 16.34 24.78 16.52 24.65 16.71C24.52 16.9 24.4 17.1 24.29 17.3C24.18 17.51 24.08 17.71 24 17.92C23.91 18.14 23.83 18.35 23.76 18.57C23.69 18.79 23.63 19.02 23.59 19.24C23.54 19.47 23.51 19.69 23.48 19.92C23.46 20.15 23.45 20.38 23.45 20.61C23.44 20.84 23.46 21.07 23.48 21.3C23.5 21.53 23.53 21.76 23.58 21.98C23.62 22.21 23.68 22.43 23.74 22.65C23.81 22.87 23.88 23.09 23.97 23.3C24.06 23.51 24.16 23.72 24.26 23.92C24.37 24.12 24.49 24.32 24.61 24.51C24.74 24.71 24.88 24.89 25.02 25.07C25.16 25.25 25.32 25.42 25.48 25.58C25.64 25.75 25.81 25.9 25.98 26.05C26.16 26.19 26.34 26.33 26.53 26.46C26.72 26.59 26.92 26.71 27.12 26.82C27.32 26.93 27.53 27.03 27.74 27.12C27.95 27.21 28.17 27.29 28.39 27.36C28.6 27.43 28.83 27.48 29.05 27.53C29.28 27.58 29.5 27.61 29.73 27.64C29.96 27.66 30.19 27.68 30.42 27.68ZM26.46 20.37C26.51 20.32 26.56 20.28 26.61 20.24C26.67 20.2 26.72 20.17 26.79 20.15C26.85 20.13 26.91 20.11 26.97 20.1C27.04 20.08 27.1 20.08 27.17 20.08C27.24 20.08 27.3 20.09 27.36 20.11C27.43 20.12 27.49 20.15 27.55 20.18C27.61 20.2 27.67 20.24 27.72 20.28C27.77 20.32 27.82 20.36 27.86 20.41C28.27 20.82 28.67 21.23 29.1 21.66L31.67 19.08C32.13 18.62 32.59 18.16 33.05 17.7C33.09 17.64 33.14 17.6 33.19 17.56C33.24 17.52 33.3 17.48 33.36 17.45C33.42 17.42 33.48 17.4 33.54 17.38C33.61 17.37 33.67 17.36 33.74 17.35C33.81 17.35 33.87 17.35 33.94 17.36C34 17.38 34.07 17.39 34.13 17.42C34.19 17.44 34.25 17.47 34.3 17.51C34.36 17.54 34.41 17.58 34.46 17.63C34.5 17.68 34.55 17.73 34.58 17.78C34.62 17.84 34.65 17.9 34.67 17.96C34.7 18.02 34.72 18.09 34.73 18.15C34.74 18.22 34.74 18.28 34.74 18.35C34.73 18.42 34.73 18.48 34.71 18.54C34.69 18.61 34.67 18.67 34.64 18.73C34.61 18.79 34.58 18.85 34.53 18.9C34.49 18.95 34.45 19 34.4 19.04C32.87 20.57 31.35 22.1 29.82 23.63C29.77 23.68 29.72 23.72 29.67 23.77C29.62 23.81 29.56 23.84 29.5 23.87C29.44 23.9 29.37 23.92 29.31 23.93C29.24 23.95 29.17 23.95 29.11 23.95C29.04 23.95 28.97 23.95 28.91 23.93C28.84 23.92 28.78 23.9 28.71 23.87C28.65 23.84 28.6 23.81 28.54 23.77C28.49 23.72 28.44 23.68 28.39 23.63C27.76 23 27.14 22.38 26.52 21.75C26.47 21.7 26.43 21.66 26.39 21.61C26.35 21.55 26.32 21.5 26.29 21.44C26.26 21.38 26.24 21.32 26.22 21.26C26.21 21.2 26.2 21.13 26.2 21.07C26.19 21 26.2 20.94 26.21 20.88C26.22 20.81 26.23 20.75 26.26 20.69C26.28 20.63 26.31 20.57 26.34 20.52C26.38 20.46 26.41 20.41 26.46 20.37ZM46.29 40.48C46.51 40.88 46.74 41.27 47 41.73L46.58 41.73C44.75 41.73 42.92 41.74 41.09 41.73C40.99 41.72 40.9 41.73 40.8 41.75C40.7 41.77 40.61 41.81 40.52 41.86C40.44 41.91 40.36 41.97 40.29 42.04C40.22 42.11 40.17 42.2 40.12 42.29C39.31 43.75 38.48 45.21 37.66 46.67C37.61 46.76 37.56 46.85 37.47 47L31.82 37.19C31.67 36.98 31.49 36.81 31.26 36.68C31.03 36.55 30.79 36.48 30.53 36.45C30.23 36.45 29.94 36.52 29.67 36.65C29.4 36.79 29.18 36.98 29.01 37.23C26.22 42.05 25.13 43.97 24.79 44.61C24.7 44.78 24.25 45.55 23.66 46.58C23.61 46.67 23.56 46.74 23.49 46.85L21.92 44.14C21.56 43.52 21.19 42.9 20.84 42.27C20.79 42.19 20.74 42.11 20.67 42.04C20.6 41.96 20.53 41.9 20.44 41.86C20.36 41.81 20.27 41.77 20.17 41.75C20.08 41.73 19.98 41.72 19.89 41.73C18.05 41.74 16.2 41.73 14.36 41.73L14 41.73C14.05 41.62 14.09 41.53 14.13 41.45C16.05 38.05 17.97 34.65 19.89 31.25C19.9 31.21 19.93 31.17 19.96 31.14C19.99 31.11 20.02 31.08 20.06 31.06C20.1 31.04 20.15 31.03 20.19 31.03C20.24 31.03 20.28 31.04 20.32 31.05C20.98 31.19 21.64 31.28 22.3 31.42C22.45 31.46 22.56 31.54 22.64 31.67C23.24 32.75 23.83 33.84 24.42 34.92C24.47 35.04 24.53 35.14 24.6 35.24C24.67 35.34 24.75 35.44 24.84 35.52C24.93 35.6 25.03 35.68 25.13 35.74C25.24 35.8 25.35 35.85 25.46 35.89C25.58 35.93 25.7 35.96 25.82 35.97C25.94 35.99 26.06 35.99 26.19 35.98C26.31 35.97 26.43 35.94 26.54 35.91C26.66 35.87 26.77 35.83 26.88 35.77C27.53 35.48 28.08 35.27 28.54 35C29 34.74 29.49 34.56 29.94 34.29C30.08 34.21 30.23 34.17 30.39 34.16C30.5 34.16 30.61 34.19 30.71 34.24C31.78 34.77 32.87 35.27 33.93 35.82C34.04 35.88 34.15 35.93 34.27 35.97C34.39 36 34.52 36.03 34.64 36.04C34.76 36.05 34.89 36.05 35.01 36.04C35.14 36.02 35.26 36 35.38 35.96C35.5 35.92 35.61 35.87 35.72 35.81C35.83 35.75 35.93 35.68 36.03 35.6C36.12 35.52 36.21 35.43 36.29 35.33C36.36 35.23 36.43 35.13 36.49 35.02C37.03 33.95 37.65 32.92 38.22 31.87C38.26 31.78 38.31 31.71 38.39 31.66C38.46 31.61 38.54 31.57 38.64 31.56C39.34 31.45 40.04 31.32 40.73 31.18C40.77 31.17 40.81 31.16 40.85 31.16C40.89 31.16 40.93 31.17 40.96 31.19C41 31.21 41.03 31.23 41.06 31.26C41.09 31.29 41.11 31.32 41.12 31.36C42.84 34.4 44.56 37.44 46.29 40.48Z" fill="#3A2215" fill-opacity="1.000000" fill-rule="nonzero"/>
		</g>
		<rect id="Icon / Relume" rx="26.000000" width="52.000000" height="52.000000" transform="translate(4.500000 0.500000)" stroke="#000000" stroke-opacity="0" stroke-width="1.000000"/>
	</g>
</svg>
